<svg width="200" height="200" viewBox="0 0 200 200" fill="none" xmlns="http://www.w3.org/2000/svg">
<path d="M131.841 194.793C130.8 195.145 129.752 195.486 128.697 195.8C129.755 195.483 130.8 195.141 131.841 194.793Z" fill="#F9EDE0"/>
<path d="M137.065 192.876C135.941 193.324 134.817 193.766 133.672 194.172C134.817 193.762 135.945 193.324 137.065 192.876Z" fill="#F9EDE0"/>
<path d="M100 200C155.228 200 200 155.228 200 100C200 44.7715 155.228 0 100 0C44.7715 0 0 44.7715 0 100C0 155.228 44.7715 200 100 200Z" fill="#EFECE8"/>
<path d="M126.679 196.372C125.659 196.655 124.631 196.924 123.593 197.176C124.631 196.924 125.659 196.655 126.679 196.372Z" fill="#F9EDE0"/>
<path d="M92.7551 199.71C91.5345 199.624 90.3172 199.531 89.1138 199.4C90.3207 199.531 91.5379 199.624 92.7551 199.71Z" fill="#F9EDE0"/>
<path d="M76.4036 197.172C75.3691 196.921 74.3415 196.652 73.3174 196.369C74.3415 196.655 75.3691 196.924 76.4036 197.172Z" fill="#F9EDE0"/>
<path d="M87.0448 199.138C85.9517 198.996 84.8621 198.848 83.7793 198.672C84.8586 198.848 85.9517 198.993 87.0448 199.138Z" fill="#F9EDE0"/>
<path d="M100 200C98.1587 200 96.3346 199.941 94.5173 199.845C96.3346 199.941 98.1587 200 100 200Z" fill="#F9EDE0"/>
<path d="M81.6449 198.29C80.5966 198.097 79.5518 197.89 78.5173 197.662C79.5518 197.89 80.5966 198.097 81.6449 198.29Z" fill="#F9EDE0"/>
<path d="M61.469 192.297C59.9138 191.645 58.3759 190.962 56.8621 190.238C58.3793 190.962 59.9172 191.648 61.469 192.297Z" fill="#F9EDE0"/>
<path d="M66.3242 194.172C65.1829 193.762 64.0553 193.324 62.9312 192.876C64.0553 193.324 65.1829 193.762 66.3242 194.172Z" fill="#F9EDE0"/>
<path d="M105.483 199.845C103.666 199.941 101.841 200 100 200C101.841 200 103.666 199.941 105.483 199.845Z" fill="#F9EDE0"/>
<path d="M110.886 199.4C109.679 199.531 108.462 199.624 107.245 199.71C108.462 199.624 109.679 199.531 110.886 199.4Z" fill="#F9EDE0"/>
<path d="M121.486 197.662C120.448 197.89 119.407 198.097 118.359 198.29C119.403 198.097 120.448 197.89 121.486 197.662Z" fill="#F9EDE0"/>
<path d="M116.224 198.669C115.142 198.845 114.052 198.993 112.959 199.134C114.048 198.993 115.142 198.848 116.224 198.669Z" fill="#F9EDE0"/>
<path d="M143.117 190.245C141.61 190.965 140.079 191.648 138.531 192.296C140.079 191.648 141.61 190.969 143.117 190.245Z" fill="#F9EDE0"/>
<path d="M71.3035 195.8C70.2449 195.483 69.2001 195.141 68.1587 194.793C69.2001 195.141 70.2449 195.483 71.3035 195.8Z" fill="#F9EDE0"/>
<path d="M138.531 192.297C138.048 192.5 137.555 192.679 137.069 192.872C137.552 192.679 138.045 192.5 138.531 192.297Z" fill="#F9EDE0"/>
<path d="M143.255 190.183C143.21 190.203 143.162 190.224 143.117 190.245C143.162 190.224 143.21 190.207 143.255 190.183Z" fill="#F9EDE0"/>
<path d="M78.5137 197.662C77.8068 197.507 77.1033 197.345 76.4033 197.176C77.1033 197.345 77.8068 197.507 78.5137 197.662Z" fill="#F9EDE0"/>
<path d="M83.7758 198.669C83.062 198.552 82.3517 198.421 81.6414 198.29C82.3551 198.421 83.062 198.555 83.7758 198.669Z" fill="#F9EDE0"/>
<path d="M94.5174 199.845C93.9278 199.814 93.3416 199.752 92.7554 199.71C93.345 199.752 93.9278 199.814 94.5174 199.845Z" fill="#F9EDE0"/>
<path d="M89.1136 199.4C88.4205 199.324 87.7343 199.228 87.0447 199.138C87.7343 199.228 88.4205 199.324 89.1136 199.4Z" fill="#F9EDE0"/>
<path d="M56.8655 190.238C56.8276 190.221 56.7862 190.204 56.7483 190.186C56.7862 190.204 56.8276 190.221 56.8655 190.238Z" fill="#F9EDE0"/>
<path d="M107.245 199.71C106.655 199.752 106.073 199.814 105.483 199.845C106.073 199.814 106.655 199.752 107.245 199.71Z" fill="#F9EDE0"/>
<path d="M128.697 195.8C128.028 196 127.355 196.186 126.679 196.372C127.355 196.186 128.028 196 128.697 195.8Z" fill="#F9EDE0"/>
<path d="M133.676 194.172C133.069 194.39 132.455 194.586 131.845 194.793C132.455 194.586 133.069 194.39 133.676 194.172Z" fill="#F9EDE0"/>
<path d="M62.9345 192.876C62.4483 192.683 61.9552 192.5 61.4724 192.3C61.9552 192.5 62.4483 192.679 62.9345 192.876Z" fill="#F9EDE0"/>
<path d="M68.1587 194.793C67.5483 194.586 66.9311 194.39 66.3276 194.172C66.9311 194.39 67.5449 194.586 68.1587 194.793Z" fill="#F9EDE0"/>
<path d="M112.955 199.138C112.266 199.228 111.579 199.328 110.886 199.4C111.579 199.324 112.266 199.228 112.955 199.138Z" fill="#F9EDE0"/>
<path d="M123.597 197.172C122.897 197.341 122.193 197.504 121.486 197.659C122.193 197.507 122.897 197.345 123.597 197.172Z" fill="#F9EDE0"/>
<path d="M118.355 198.29C117.645 198.421 116.938 198.555 116.221 198.669C116.938 198.555 117.645 198.421 118.355 198.29Z" fill="#F9EDE0"/>
<path d="M73.3207 196.372C72.6483 196.186 71.9724 196 71.3035 195.8C71.9724 196 72.6448 196.186 73.3207 196.372Z" fill="#F9EDE0"/>
<path d="M122.89 106.876C134.031 99.4586 141.379 86.7999 141.379 72.4137C141.379 49.562 122.852 31.0344 100 31.0344C77.1483 31.0344 58.6208 49.562 58.6208 72.4137C58.6208 86.7999 65.969 99.4586 77.1104 106.876C77.1104 106.876 77.1139 106.879 77.1173 106.879C77.1139 106.879 77.1139 106.876 77.1139 106.876C50.4449 114.914 29.6794 136.559 22.9932 163.79L22.9966 163.793C24.0863 165.107 25.2173 166.39 26.3725 167.648C26.6518 167.955 26.9449 168.248 27.2311 168.548C28.1207 169.493 29.0207 170.424 29.9449 171.334C30.3276 171.71 30.7173 172.072 31.107 172.441C31.9621 173.255 32.8276 174.059 33.7104 174.841C34.1483 175.228 34.5932 175.61 35.0345 175.99C35.9001 176.731 36.7759 177.459 37.669 178.169C38.138 178.545 38.6104 178.914 39.0828 179.283C39.9863 179.979 40.9035 180.655 41.8311 181.317C42.3104 181.659 42.7828 182.007 43.269 182.341C44.2483 183.017 45.2449 183.665 46.2483 184.307C46.7001 184.593 47.1414 184.89 47.5966 185.172C48.7552 185.886 49.9345 186.569 51.1242 187.238C51.438 187.414 51.7449 187.603 52.0621 187.776C53.6001 188.617 55.1621 189.424 56.7483 190.186C56.7863 190.203 56.8276 190.221 56.8656 190.238C58.3794 190.962 59.9173 191.648 61.4725 192.296C61.9552 192.5 62.4483 192.679 62.9345 192.872C64.0587 193.321 65.1828 193.762 66.3276 194.169C66.9345 194.386 67.5483 194.583 68.1587 194.79C69.2001 195.141 70.2483 195.483 71.3035 195.796C71.9725 195.996 72.6449 196.183 73.3208 196.369C74.3414 196.652 75.369 196.921 76.407 197.172C77.107 197.341 77.8104 197.503 78.5173 197.659C79.5552 197.886 80.5966 198.093 81.6449 198.286C82.3552 198.417 83.0621 198.552 83.7794 198.665C84.8621 198.841 85.9518 198.99 87.0449 199.131C87.7345 199.221 88.4207 199.321 89.1139 199.393C90.3207 199.524 91.538 199.617 92.7552 199.703C93.3449 199.745 93.9277 199.807 94.5173 199.838C96.3345 199.941 98.1587 200 100 200C101.841 200 103.666 199.941 105.483 199.845C106.072 199.814 106.659 199.752 107.245 199.71C108.466 199.624 109.683 199.531 110.886 199.4C111.579 199.324 112.266 199.228 112.955 199.138C114.048 198.996 115.138 198.848 116.221 198.672C116.935 198.555 117.645 198.424 118.355 198.293C119.404 198.1 120.448 197.893 121.483 197.665C122.19 197.51 122.893 197.348 123.593 197.179C124.628 196.928 125.655 196.659 126.679 196.376C127.352 196.19 128.028 196.003 128.697 195.803C129.755 195.486 130.8 195.145 131.841 194.796C132.452 194.59 133.069 194.393 133.672 194.176C134.814 193.765 135.941 193.328 137.066 192.879C137.552 192.686 138.045 192.503 138.528 192.303C140.076 191.655 141.607 190.976 143.114 190.252C143.159 190.231 143.207 190.21 143.252 190.19C144.838 189.428 146.4 188.621 147.938 187.779C148.255 187.607 148.562 187.417 148.876 187.241C150.066 186.572 151.245 185.89 152.404 185.176C152.859 184.896 153.304 184.6 153.752 184.31C154.755 183.669 155.752 183.017 156.731 182.345C157.214 182.01 157.69 181.665 158.169 181.321C159.097 180.655 160.014 179.979 160.917 179.286C161.393 178.921 161.862 178.548 162.331 178.172C163.221 177.462 164.1 176.734 164.966 175.993C165.41 175.614 165.855 175.231 166.29 174.845C167.172 174.062 168.038 173.259 168.893 172.445C169.279 172.076 169.672 171.71 170.055 171.338C170.979 170.428 171.883 169.496 172.769 168.552C173.052 168.248 173.345 167.955 173.628 167.652C174.783 166.393 175.914 165.11 177.004 163.796L177.007 163.793C170.324 136.559 149.559 114.914 122.89 106.876Z" fill="#C6C3BD"/>
</svg>
