<svg width="512" height="512" viewBox="0 0 512 512" fill="none" xmlns="http://www.w3.org/2000/svg">
<path d="M443.418 172.088L339.912 68.582L409.498 29.923C414.259 27.278 420.196 28.11 424.048 31.961L480.04 87.953C483.891 91.804 484.723 97.742 482.078 102.503L443.418 172.088Z" fill="#C5DEF8"/>
<path d="M457.989 65.901L424.048 31.96C420.197 28.109 414.259 27.277 409.498 29.922L339.912 68.581L373.853 102.522L443.439 63.863C448.201 61.219 454.138 62.05 457.989 65.901Z" fill="#8EC2ED"/>
<path d="M471.225 178.784C471.376 178.633 471.527 178.482 471.678 178.331C479.89 170.119 479.889 156.806 471.678 148.594L363.406 40.3221C355.194 32.1101 341.881 32.1101 333.669 40.3221L333.217 40.7741C325.005 48.9861 325.005 62.2991 333.217 70.5111L441.489 178.783C449.7 186.995 463.013 186.995 471.225 178.784V178.784Z" fill="#E1EAF9"/>
<path d="M375.643 83.2011L376.095 82.7491C384.307 74.5371 397.62 74.5371 405.832 82.7491L363.406 40.3231C355.194 32.1111 341.881 32.1111 333.669 40.3231L333.217 40.7751C325.005 48.9871 325.005 62.3001 333.217 70.5121L375.643 112.938C367.431 104.726 367.431 91.4131 375.643 83.2011Z" fill="#C5DEF8"/>
<path d="M471.451 178.557L333.443 40.5491C314.388 21.4941 283.494 21.4941 264.439 40.5491L3.95203 301.035C4.99803 306.931 6.25803 312.753 7.70003 318.502L193.498 504.3C199.247 505.743 205.069 507.002 210.965 508.048L471.452 247.561C490.506 228.506 490.506 197.612 471.451 178.557V178.557Z" fill="#2A9DDD"/>
<path d="M333.443 40.5491C314.388 21.4941 283.494 21.4941 264.439 40.5491L3.95203 301.035C4.99903 306.932 6.25103 312.758 7.69403 318.508L7.69903 318.502L39.519 350.322L306.865 82.9751C325.92 63.9201 356.814 63.9201 375.869 82.9751L333.443 40.5491Z" fill="#167CC1"/>
<path d="M108.862 217.306L165.13 161.038L350.901 346.809L294.633 403.077L108.862 217.306Z" fill="#85D249"/>
<path d="M108.867 217.295L165.135 161.027L196.95 192.842L140.682 249.11L108.867 217.295Z" fill="#60B550"/>
<path d="M428.464 269.336L460.844 236.956C474.02 223.78 474.02 202.341 460.844 189.164L322.837 51.1549C309.661 37.9789 288.222 37.9789 275.045 51.1549L242.665 83.535L428.464 269.336Z" fill="#167CC1"/>
<path d="M340.388 68.707L322.836 51.1549C309.66 37.9789 288.221 37.9789 275.044 51.1549L242.664 83.535L274.484 115.355L306.865 82.9739C316.144 73.6969 328.229 68.95 340.388 68.707V68.707Z" fill="#0E62A8"/>
<path d="M7.69897 318.502C30.575 409.668 102.332 481.425 193.499 504.301L217.209 480.591L31.409 294.791L7.69897 318.502Z" fill="#85D249"/>
<path d="M7.69897 318.502C11.867 335.112 17.652 351.079 24.887 366.223C26.608 363.674 28.591 361.249 30.847 358.993L63.228 326.612L31.408 294.792L7.69897 318.502Z" fill="#60B550"/>
<path d="M41.979 284.175L98.247 227.907L284.018 413.679L227.75 469.947L41.979 284.175Z" fill="#85D249"/>
<path d="M41.9847 284.164L98.2528 227.896L130.068 259.711L73.7997 315.979L41.9847 284.164Z" fill="#60B550"/>
<path d="M175.745 150.437L232.013 94.1692L417.784 279.941L361.516 336.209L175.745 150.437Z" fill="#167CC1"/>
<path d="M175.75 150.426L232.018 94.1583L263.833 125.973L207.565 182.241L175.75 150.426Z" fill="#0E62A8"/>
<path d="M284.765 316.601L252.253 284.089C249.598 281.434 249.598 277.13 252.253 274.475L311.325 215.403C316.117 210.611 311.714 202.525 305.088 203.95L184.703 229.856C179.439 230.989 177.519 237.501 181.326 241.309L213.838 273.821C216.493 276.476 216.493 280.78 213.838 283.435L154.766 342.507C149.974 347.299 154.377 355.385 161.003 353.96L281.388 328.054C286.652 326.921 288.572 320.408 284.765 316.601Z" fill="#E1EAF9"/>
<path d="M253.996 235.126L312.828 208.095C311.686 205.26 308.728 203.167 305.088 203.95L184.703 229.856C179.439 230.989 177.519 237.501 181.326 241.308L213.838 273.82C216.493 276.475 216.493 280.779 213.838 283.434L154.766 342.506C152.828 344.445 152.412 346.917 153.022 349.085L211.908 321.489C228.189 313.859 236.91 295.877 232.821 278.368C228.708 260.754 237.559 242.678 253.996 235.126V235.126Z" fill="#C5DEF8"/>
</svg>
