<svg width="416" height="512" viewBox="0 0 416 512" fill="none" xmlns="http://www.w3.org/2000/svg">
<path d="M290.022 476.561C300.518 470.36 310.535 463.436 320 455.85V40C320 17.91 302.09 0 280 0H40C17.91 0 0 17.91 0 40V455.85C9.465 463.436 19.482 470.36 29.978 476.561H290.022Z" fill="#0E62A8"/>
<path d="M112.258 476.561V40C112.258 17.91 130.168 0 152.258 0H40C17.91 0 0 17.91 0 40V455.85C9.467 463.438 19.49 470.361 29.989 476.561H112.258Z" fill="#024788"/>
<path d="M290 80C290 74.486 285.514 70 280 70H40C34.486 70 30 74.486 30 80V476.561C68.105 499.069 112.539 512 160 512C207.461 512 251.895 499.069 290 476.561V80Z" fill="#8ADAF9"/>
<path d="M40 70C34.486 70 30 74.486 30 80V476.561C40.713 482.889 51.926 488.46 63.566 493.199C63.6 493.213 63.635 493.227 63.67 493.241C64.862 493.726 66.06 494.201 67.261 494.669C67.622 494.81 67.986 494.946 68.348 495.085C69.222 495.42 70.098 495.754 70.976 496.08C71.513 496.279 72.051 496.473 72.59 496.669C73.292 496.924 73.994 497.178 74.698 497.428C75.358 497.661 76.02 497.889 76.682 498.117C77.265 498.318 77.849 498.518 78.434 498.715C79.191 498.969 79.949 499.219 80.709 499.466C81.194 499.624 81.68 499.781 82.167 499.936C83.015 500.206 83.864 500.472 84.716 500.734C85.106 500.854 85.497 500.973 85.888 501.091C86.826 501.374 87.767 501.654 88.709 501.927C89 502.011 89.292 502.094 89.584 502.177C90.623 502.474 91.665 502.766 92.71 503.05C92.876 503.095 93.043 503.139 93.209 503.184C99.468 504.871 105.82 506.329 112.259 507.543V70H40Z" fill="#2EBCF6"/>
<path d="M30 351.57L94.64 503.565C106.648 506.729 119 509.04 131.63 510.434L30 271.459V351.57Z" fill="#2EBCF6"/>
<path d="M96.914 504.143C97.379 504.261 97.842 504.381 98.308 504.497C99.436 504.776 100.569 505.044 101.703 505.309C102.127 505.408 102.549 505.51 102.973 505.606C104.137 505.871 105.306 506.124 106.475 506.373C106.88 506.459 107.284 506.55 107.69 506.634C108.909 506.887 110.133 507.127 111.359 507.363C111.659 507.421 111.957 507.482 112.257 507.539V464.884L30 271.459V351.57L94.633 503.551C95.393 503.751 96.152 503.95 96.914 504.143V504.143Z" fill="#00ADF4"/>
<path d="M211.957 70L290 253.513V173.402L246.026 70H211.957Z" fill="#2EBCF6"/>
<path d="M188.14 70H112.257L286.112 478.808C287.414 478.069 288.711 477.321 289.999 476.561V309.516L188.14 70Z" fill="#2EBCF6"/>
<path d="M30 187.789L167.826 511.876C186.516 511.314 204.699 508.745 222.173 504.381L37.574 70.3101C33.23 71.3991 30 75.3241 30 80.0001V187.789Z" fill="#2EBCF6"/>
<path d="M112.258 245.925L37.574 70.3101C33.23 71.3991 30 75.3241 30 80.0001V187.789L112.258 381.213V245.925Z" fill="#00ADF4"/>
<path d="M209.534 109.842L249.37 52.314H184.249L155.598 123.281L230.858 178.239L203.679 237.132L253.268 291L230.257 236.89L268.316 179.036L209.534 109.842Z" fill="#0E62A8"/>
<path d="M7.14905 355.647L85.319 311.113L106.532 358.538L162.5 352.087L102.957 383.697L70.912 361.911L17.092 405.963L7.14905 355.647Z" fill="#024788"/>
<path d="M180 44.2549H140C134.477 44.2549 130 39.7779 130 34.2549C130 28.7319 134.477 24.2549 140 24.2549H180C185.523 24.2549 190 28.7319 190 34.2549C190 39.7779 185.523 44.2549 180 44.2549Z" fill="#024788"/>
<path d="M90 44.2549C95.5228 44.2549 100 39.7777 100 34.2549C100 28.732 95.5228 24.2549 90 24.2549C84.4772 24.2549 80 28.732 80 34.2549C80 39.7777 84.4772 44.2549 90 44.2549Z" fill="#0E62A8"/>
<path d="M230 44.2549C235.523 44.2549 240 39.7777 240 34.2549C240 28.732 235.523 24.2549 230 24.2549C224.477 24.2549 220 28.732 220 34.2549C220 39.7777 224.477 44.2549 230 44.2549Z" fill="#024788"/>
<path d="M316 512C371.228 512 416 467.228 416 412C416 356.772 371.228 312 316 312C260.772 312 216 356.772 216 412C216 467.228 260.772 512 316 512Z" fill="#60B550"/>
<path d="M270.485 412C270.485 366.216 301.255 327.619 343.242 315.757C334.582 313.311 325.444 312 316 312C260.772 312 216 356.771 216 412C216 467.229 260.772 512 316 512C325.444 512 334.582 510.689 343.243 508.243C301.255 496.381 270.485 457.784 270.485 412Z" fill="#389F4D"/>
<path d="M356.962 439.139H338.127V430.1C338.127 427.827 335.379 426.689 333.772 428.296L316.332 445.736C314.339 447.729 314.339 450.959 316.332 452.952L333.772 470.392C335.379 471.999 338.127 470.861 338.127 468.588V459.549H356.962L359.939 458.833L364.797 449.345L356.962 439.139Z" fill="#E1EAF9"/>
<path d="M356.962 439.139H338.127C343.763 439.139 348.332 443.708 348.332 449.343C348.332 454.979 343.764 459.547 338.128 459.547H356.962L359.939 458.831L364.797 449.343L356.962 439.139Z" fill="#C5DEF8"/>
<path d="M365.843 454.415L374.632 439.159C376.458 435.989 376.456 432.086 374.627 428.918L360.465 404.388C358.745 401.408 354.281 401.996 353.39 405.319C352.661 408.041 349.863 409.656 347.141 408.927L347.128 408.924C343.805 408.035 341.066 411.607 342.786 414.586L360.697 445.609C363.515 450.49 361.843 456.731 356.962 459.549C360.627 459.548 364.013 457.591 365.843 454.415V454.415Z" fill="#E1EAF9"/>
<path d="M316.019 368.186L325.436 384.497L317.608 389.017C315.64 390.153 316.028 393.102 318.223 393.691L342.046 400.074C344.768 400.803 347.566 399.188 348.295 396.466L354.678 372.643C355.266 370.448 352.907 368.637 350.938 369.773L343.11 374.293L333.693 357.982L331.584 355.762L320.938 356.299L316.019 368.186Z" fill="#E1EAF9"/>
<path d="M316.019 368.186L325.436 384.497C322.618 379.616 324.29 373.375 329.171 370.557C334.052 367.739 340.292 369.411 343.11 374.292L333.693 357.981L331.584 355.761L320.938 356.298L316.019 368.186Z" fill="#C5DEF8"/>
<path d="M324.808 352.856L307.201 352.873C303.543 352.877 300.164 354.83 298.335 357.998L284.173 382.528C282.453 385.508 285.194 389.08 288.517 388.189C291.239 387.46 294.037 389.075 294.766 391.797L294.77 391.81C295.662 395.132 300.124 395.718 301.844 392.74L319.755 361.717C322.573 356.836 328.814 355.164 333.695 357.982C331.862 354.807 328.473 352.853 324.808 352.856V352.856Z" fill="#E1EAF9"/>
<path d="M275.048 439.135L284.465 422.824L292.293 427.344C294.261 428.48 296.621 426.67 296.033 424.474L289.65 400.651C288.921 397.929 286.123 396.314 283.401 397.043L259.578 403.426C257.383 404.014 256.994 406.963 258.963 408.1L266.791 412.62L257.374 428.931L256.506 431.867L262.294 440.818L275.048 439.135Z" fill="#E1EAF9"/>
<path d="M275.048 439.135L284.465 422.824C281.647 427.705 275.406 429.377 270.525 426.559C265.644 423.741 263.972 417.501 266.79 412.62L257.373 428.931L256.505 431.867L262.293 440.818L275.048 439.135Z" fill="#C5DEF8"/>
<path d="M257.378 439.188L266.196 454.428C268.028 457.594 271.409 459.544 275.067 459.544H303.392C306.833 459.544 308.556 455.384 306.123 452.951C304.13 450.959 304.13 447.728 306.123 445.735L306.133 445.725C308.564 443.292 306.841 439.134 303.401 439.134H267.578C261.942 439.134 257.374 434.565 257.374 428.93C255.541 432.105 255.542 436.016 257.378 439.188V439.188Z" fill="#E1EAF9"/>
</svg>
