<svg width="400" height="512" viewBox="0 0 400 512" fill="none" xmlns="http://www.w3.org/2000/svg">
<path d="M180.008 175.287C181.137 168.471 181.49 161.502 181.007 154.513C180.279 143.976 181.43 133.477 184.318 123.484C187.207 113.496 191.842 104.007 198.084 95.484L225.044 58.671L236.429 43.125L207.243 21.75L195.858 37.296L168.898 74.109C156.419 91.154 138.306 103.232 117.775 108.205C107.509 110.692 97.847 114.957 89.192 120.726C80.536 126.495 72.889 133.779 66.647 142.302L42.492 175.286H180.008V175.287Z" fill="#E1EAF9"/>
<path d="M234.971 47.6651L203.354 24.5101C201.339 23.0341 200.902 20.2051 202.377 18.1901L207.72 10.8941C209.196 8.8791 212.025 8.4421 214.04 9.9181L245.657 33.0721C247.672 34.5481 248.109 37.3771 246.634 39.3921L241.291 46.6881C239.815 48.7031 236.986 49.1401 234.971 47.6651Z" fill="#D85E41"/>
<path d="M218.513 30.0071L223.856 22.7111C225.332 20.6961 228.161 20.2591 230.176 21.7351L214.04 9.91806C212.025 8.44206 209.196 8.88006 207.72 10.8941L202.377 18.1901C200.901 20.2051 201.339 23.0341 203.353 24.5101L219.489 36.3271C217.475 34.8521 217.037 32.0221 218.513 30.0071V30.0071Z" fill="#C04A27"/>
<path d="M73.162 39.6069L90.964 46.9809L133.12 64.4429C142.88 68.4859 153.198 70.7389 163.586 71.1769C173.979 71.6129 184.451 70.2409 194.516 67.0359C205.41 63.5669 216.776 62.2469 228.006 63.0439C230.505 63.2209 231.209 66.5679 228.999 67.7469L221.334 71.8359C219.301 72.9209 219.693 75.9439 221.935 76.4749L237.99 80.2719L228.408 95.1879C227.015 97.3569 229.417 99.9589 231.69 98.7439L247.661 90.2019L251.854 120.158C252.212 122.714 255.737 123.118 256.663 120.709L267.018 93.7899L296.049 115.112C298.088 116.61 300.807 114.478 299.839 112.14L289.988 88.3579C289.136 86.2999 291.197 84.2389 293.254 85.0919L328.541 99.7079C332.707 142.09 315.31 184.089 282.396 211.112L209.771 181.03C200.011 176.987 191.122 171.285 183.465 164.244C175.808 157.203 169.373 148.828 164.523 139.445C154.823 120.679 138.795 105.946 119.277 97.8649L77.12 80.4019L59.318 73.0279L73.162 39.6069Z" fill="#60B550"/>
<path d="M73.162 39.6069L90.964 46.9809L133.12 64.4429C152.635 72.5299 168.666 87.2569 178.366 106.023C188.068 124.794 204.094 139.522 223.614 147.608L308.038 182.577C301.053 193.204 292.447 202.857 282.396 211.112L209.771 181.03C200.011 176.987 191.122 171.285 183.465 164.244C175.808 157.203 169.373 148.828 164.523 139.445C154.823 120.679 138.795 105.946 119.277 97.8649L77.12 80.4019L59.318 73.0279L73.162 39.6069Z" fill="#389F4D"/>
<path d="M77.919 39.946L62.922 76.152C61.966 78.459 59.321 79.555 57.014 78.599L48.659 75.138C46.352 74.182 45.256 71.537 46.212 69.23L61.209 33.024C62.165 30.717 64.81 29.621 67.117 30.577L75.472 34.038C77.779 34.994 78.875 37.639 77.919 39.946V39.946Z" fill="#D85E41"/>
<path d="M64.668 60.1219L56.313 56.6609C54.006 55.7049 52.91 53.0599 53.866 50.7529L46.212 69.2309C45.256 71.5379 46.352 74.1829 48.659 75.1389L57.014 78.5999C59.321 79.5559 61.966 78.4599 62.922 76.1529L70.576 57.6749C69.62 59.9819 66.975 61.0769 64.668 60.1219V60.1219Z" fill="#C04A27"/>
<path d="M352.067 123.165C348.493 113.396 343.218 104.246 336.405 96.175C322.779 80.032 315.301 59.586 315.305 38.461V32.831V13.563H297.217H279.129V32.832V38.462C279.133 59.587 271.655 80.033 258.029 96.176C251.216 104.248 245.941 113.398 242.367 123.166C238.793 132.935 236.926 143.329 236.926 153.893V190.261C236.926 193.022 239.165 195.261 241.926 195.261H297.217H352.508C355.269 195.261 357.508 193.022 357.508 190.261V153.893C357.508 143.328 355.641 132.934 352.067 123.165V123.165Z" fill="#E1EAF9"/>
<path d="M273.101 195.261V153.893C273.101 132.765 280.575 112.322 294.205 96.175C307.831 80.032 315.302 59.586 315.305 38.461V32.831V13.563H279.129V32.832V38.462C279.133 59.587 271.655 80.033 258.029 96.176C251.216 104.248 245.941 113.398 242.367 123.166C238.793 132.935 236.926 143.329 236.926 153.893V190.261C236.926 193.022 239.165 195.261 241.926 195.261H273.101Z" fill="#C5DEF8"/>
<path d="M316.811 18.087H277.622C275.125 18.087 273.1 16.063 273.1 13.565V4.522C273.1 2.025 275.124 0 277.622 0H316.811C319.308 0 321.333 2.024 321.333 4.522V13.566C321.333 16.063 319.309 18.087 316.811 18.087Z" fill="#D85E41"/>
<path d="M293.1 13.565V4.522C293.1 2.025 295.125 0 297.622 0H277.622C275.125 0 273.1 2.024 273.1 4.522V13.566C273.1 16.063 275.125 18.088 277.622 18.088H297.622C295.125 18.087 293.1 16.063 293.1 13.565V13.565Z" fill="#C04A27"/>
<path d="M50.571 278.503L43.333 188.795C42.667 180.538 35.433 174.384 27.175 175.05C18.918 175.716 12.764 182.95 13.43 191.208L20.668 280.916C21.334 289.173 28.568 295.327 36.826 294.661C45.083 293.994 51.237 286.76 50.571 278.503V278.503Z" fill="#389F4D"/>
<path d="M349.429 278.503L356.667 188.795C357.333 180.538 364.567 174.384 372.825 175.05C381.082 175.716 387.236 182.95 386.57 191.208L379.332 280.916C378.666 289.173 371.432 295.327 363.174 294.661C354.917 293.994 348.763 286.76 349.429 278.503V278.503Z" fill="#389F4D"/>
<path d="M30 170L53.346 465.838C94.884 494.922 145.444 512 200 512C254.556 512 305.116 494.922 346.654 465.838L370 170H30Z" fill="#85D249"/>
<path d="M53.346 465.838C94.884 494.922 145.444 512 200 512C254.556 512 305.116 494.922 346.654 465.838C215.471 465.838 106.931 363.773 98.872 232.839L98.081 220H366.055L370 170H30L53.346 465.838Z" fill="#60B550"/>
<path d="M385 190.287H15C6.716 190.287 0 183.571 0 175.287C0 167.003 6.716 160.287 15 160.287H385C393.284 160.287 400 167.003 400 175.287C400 183.571 393.284 190.287 385 190.287Z" fill="#A3EA6E"/>
<path d="M81.234 175.287C81.234 167.003 87.95 160.287 96.234 160.287H15C6.716 160.287 0 167.003 0 175.287C0 183.571 6.716 190.287 15 190.287H96.234C87.95 190.287 81.234 183.571 81.234 175.287Z" fill="#85D249"/>
<path d="M237.782 464.699L241.435 449.822C241.828 448.221 240.591 446.685 238.943 446.727L213.383 447.378C210.803 447.444 209.827 444.033 212.052 442.724L238.124 427.386L224.12 415.9C222.127 414.265 223.612 411.049 226.149 411.507L243.597 414.652L240.961 398.366C240.593 396.091 243.236 394.572 245.016 396.035L251.727 401.552C253.664 403.144 256.483 401.207 255.69 398.829C252.129 388.151 246.561 378.158 239.188 369.423C232.375 361.351 227.1 352.201 223.526 342.433C219.955 332.668 218.088 322.273 218.088 311.709V266.079V246.81H181.912V266.079V311.709C181.916 332.834 174.438 353.28 160.812 369.423C153.999 377.495 148.724 386.645 145.15 396.413C141.576 406.182 139.709 416.576 139.709 427.14V463.508C139.709 466.269 141.948 468.508 144.709 468.508H232.927C235.228 468.507 237.233 466.935 237.782 464.699V464.699Z" fill="#389F4D"/>
<path d="M175.884 468.507V427.139C175.884 406.011 183.358 385.568 196.988 369.421C210.614 353.278 218.085 332.832 218.088 311.707V266.077V246.808H181.912V266.077V311.707C181.916 332.832 174.438 353.278 160.812 369.421C153.999 377.493 148.724 386.643 145.15 396.411C141.576 406.18 139.709 416.574 139.709 427.138V463.506C139.709 466.267 141.948 468.506 144.709 468.506H175.884V468.507Z" fill="#288C38"/>
<path d="M219.595 251.333H180.406C177.909 251.333 175.884 249.309 175.884 246.811V237.767C175.884 235.27 177.908 233.245 180.406 233.245H219.595C222.092 233.245 224.117 235.269 224.117 237.767V246.811C224.116 249.309 222.092 251.333 219.595 251.333Z" fill="#389F4D"/>
</svg>
