<svg width="400" height="512" viewBox="0 0 400 512" fill="none" xmlns="http://www.w3.org/2000/svg">
<path d="M54.921 53.9339L71.484 66.2059L67.893 74.8759L47.502 71.8419L54.921 53.9339ZM47.844 46.8569C46.947 47.7539 46.204 48.8429 45.681 50.1059L38.263 68.0149C35.773 74.0249 39.595 80.7749 46.03 81.7329L74.144 85.9159L83.711 62.8189L60.873 45.8979C56.745 42.8389 51.214 43.4879 47.844 46.8569V46.8569Z" fill="#E1EAF9"/>
<path d="M117.352 85.3409L110.285 181.557L129.492 200.764C133.666 204.938 138.979 207.788 144.766 208.957L172.279 214.514L214.705 182.694L246.525 140.268L240.968 112.755C239.799 106.969 236.949 101.656 232.775 97.4809L213.568 78.2739L117.352 85.3409Z" fill="#60B550"/>
<path d="M166.43 187.292C160.644 186.123 155.331 183.273 151.156 179.099L121.594 149.537L113.249 141.192L110.284 181.556L129.491 200.763C133.665 204.937 138.978 207.787 144.765 208.956L172.278 214.513L214.704 182.693L223.989 170.313L193.942 192.848L166.43 187.292Z" fill="#389F4D"/>
<path d="M173.651 38.3569C169.477 34.1829 164.164 31.3329 158.377 30.1639L130.864 24.6069L88.438 56.4269L56.618 98.8529L62.175 126.366C63.344 132.152 66.194 137.465 70.368 141.64L99.93 171.202L110.285 181.557C136.106 155.736 104.974 124.605 130.795 98.7839C156.616 72.9629 187.747 104.095 213.568 78.2739L203.213 67.9189L173.651 38.3569Z" fill="#85D249"/>
<path d="M56.618 98.8529L62.175 126.366C63.344 132.152 66.194 137.465 70.368 141.64L99.93 171.202L110.285 181.557C120.466 171.376 121.791 160.37 121.246 149.189L92.032 119.975C87.858 115.801 85.008 110.488 83.839 104.701L78.282 77.1879L100.817 47.1409L88.437 56.4259L56.618 98.8529Z" fill="#60B550"/>
<path d="M130.864 24.607L56.618 98.853C53.689 101.782 48.94 101.782 46.011 98.853C43.082 95.924 43.082 91.175 46.011 88.246L120.257 14C123.186 11.071 127.935 11.071 130.864 14C133.793 16.93 133.793 21.678 130.864 24.607Z" fill="white"/>
<path d="M323 59.203C323 62.688 320.362 65.899 319.781 69.217C319.183 72.63 320.556 76.546 319.397 79.729C318.218 82.969 314.638 85.084 312.934 88.029C311.214 91.002 311.16 95.156 308.964 97.771C306.762 100.393 302.677 101.163 300.055 103.365C297.44 105.561 295.978 109.453 293.005 111.173C290.06 112.877 285.961 112.209 282.722 113.389C279.539 114.548 276.833 117.704 273.42 118.302C270.102 118.883 266.485 116.851 263 116.851C259.515 116.851 255.898 118.883 252.58 118.302C249.167 117.704 246.461 114.548 243.278 113.389C240.038 112.21 235.94 112.877 232.995 111.173C230.022 109.453 228.56 105.561 225.945 103.365C223.323 101.163 219.238 100.393 217.036 97.771C214.84 95.157 214.786 91.002 213.066 88.029C211.362 85.084 207.782 82.969 206.603 79.729C205.444 76.546 206.817 72.629 206.219 69.217C205.638 65.899 203 62.687 203 59.203C203 55.718 205.638 52.507 206.219 49.189C206.817 45.776 205.444 41.86 206.603 38.677C207.782 35.437 211.362 33.322 213.066 30.377C214.786 27.404 214.84 23.25 217.036 20.635C219.238 18.013 223.323 17.243 225.945 15.041C228.56 12.845 230.022 8.95297 232.995 7.23297C235.94 5.52897 240.039 6.19697 243.278 5.01697C246.461 3.85797 249.167 0.701975 252.58 0.103975C255.898 -0.477025 259.515 1.55497 263 1.55497C266.485 1.55497 270.102 -0.477025 273.42 0.103975C276.833 0.701975 279.539 3.85797 282.722 5.01697C285.962 6.19597 290.06 5.52897 293.005 7.23297C295.978 8.95297 297.44 12.845 300.055 15.041C302.677 17.243 306.762 18.013 308.964 20.635C311.16 23.249 311.214 27.404 312.934 30.377C314.638 33.322 318.218 35.437 319.397 38.677C320.556 41.86 319.183 45.777 319.781 49.189C320.362 52.507 323 55.718 323 59.203V59.203Z" fill="#E1EAF9"/>
<path d="M263 110C290.614 110 313 87.6142 313 60C313 32.3858 290.614 10 263 10C235.386 10 213 32.3858 213 60C213 87.6142 235.386 110 263 110Z" fill="#C5DEF8"/>
<path d="M200.5 107.108H325.5V164.756H200.5V107.108Z" fill="#7E5966"/>
<path d="M200.5 107.108H234.202V164.756H200.5V107.108Z" fill="#603F42"/>
<path d="M325.5 114.608H200.5C196.358 114.608 193 111.25 193 107.108C193 102.966 196.358 99.6079 200.5 99.6079H325.5C329.642 99.6079 333 102.966 333 107.108C333 111.25 329.642 114.608 325.5 114.608Z" fill="#E1EAF9"/>
<path d="M50.571 278.503L43.333 188.795C42.667 180.538 35.433 174.384 27.175 175.05C18.918 175.716 12.764 182.95 13.43 191.208L20.668 280.916C21.334 289.173 28.568 295.327 36.826 294.661C45.083 293.994 51.237 286.76 50.571 278.503V278.503Z" fill="#AA004D"/>
<path d="M349.429 278.503L356.667 188.795C357.333 180.538 364.567 174.384 372.825 175.05C381.082 175.716 387.236 182.95 386.57 191.208L379.332 280.916C378.666 289.173 371.432 295.327 363.174 294.661C354.917 293.994 348.763 286.76 349.429 278.503V278.503Z" fill="#AA004D"/>
<path d="M30 170L53.346 465.838C94.884 494.922 145.444 512 200 512C254.556 512 305.116 494.922 346.654 465.838L370 170H30Z" fill="#E80054"/>
<path d="M53.346 465.838C94.884 494.922 145.444 512 200 512C254.556 512 305.116 494.922 346.654 465.838C215.471 465.838 106.931 363.773 98.872 232.839L98.081 220H366.055L370 170H30L53.346 465.838Z" fill="#CC0053"/>
<path d="M385 190.287H15C6.716 190.287 0 183.571 0 175.287C0 167.003 6.716 160.287 15 160.287H385C393.284 160.287 400 167.003 400 175.287C400 183.571 393.284 190.287 385 190.287Z" fill="#FF4155"/>
<path d="M81.234 175.287C81.234 167.003 87.95 160.287 96.234 160.287H15C6.716 160.287 0 167.003 0 175.287C0 183.571 6.716 190.287 15 190.287H96.234C87.95 190.287 81.234 183.571 81.234 175.287Z" fill="#E80054"/>
<path d="M268.025 292.6L252.5 269.216L200 261.716L147.5 269.216L131.975 292.6C128.71 297.518 126.968 303.29 126.968 309.193V351V392.807C126.968 398.71 128.71 404.482 131.975 409.4L147.5 432.784L200 440.284L252.5 432.784L268.025 409.4C271.29 404.482 273.032 398.71 273.032 392.807V351V309.193C273.032 303.29 271.29 297.518 268.025 292.6Z" fill="#CC0053"/>
<path d="M178.138 432.784L162.613 409.4C159.348 404.482 157.606 398.71 157.606 392.807V351V309.193C157.606 303.29 159.348 297.518 162.613 292.6L178.138 269.216L215.319 263.904L200 261.715L147.5 269.215L131.975 292.6C128.71 297.518 126.968 303.29 126.968 309.193V351V392.807C126.968 398.71 128.71 404.482 131.975 409.4L147.5 432.784L200 440.284L215.319 438.096L178.138 432.784Z" fill="#AA004D"/>
<path d="M252.5 269.216H147.5C143.358 269.216 140 265.858 140 261.716C140 257.574 143.358 254.216 147.5 254.216H252.5C256.642 254.216 260 257.574 260 261.716C260 265.858 256.642 269.216 252.5 269.216Z" fill="#AA004D"/>
<path d="M252.5 432.785H147.5C143.358 432.785 140 436.143 140 440.285C140 444.427 143.358 447.785 147.5 447.785H252.5C256.642 447.785 260 444.427 260 440.285C260 436.142 256.642 432.785 252.5 432.785Z" fill="#AA004D"/>
</svg>
