<svg width="400" height="512" viewBox="0 0 400 512" fill="none" xmlns="http://www.w3.org/2000/svg">
<path d="M316.246 133.658L250.092 174.136L266.283 200.597L332.437 160.119C338.026 169.253 349.961 172.127 359.095 166.538C368.229 160.949 371.103 149.014 365.514 139.88C362.203 134.47 356.666 131.257 350.803 130.697C352.973 125.222 352.633 118.829 349.322 113.419C343.733 104.285 331.798 101.411 322.664 107C313.531 112.589 310.657 124.524 316.246 133.658V133.658Z" fill="white"/>
<path d="M316.246 133.658C321.835 142.792 333.77 145.666 342.904 140.077C346.841 137.668 349.608 134.077 351.042 130.041C350.964 130.26 350.889 130.48 350.803 130.697C356.666 131.257 362.203 134.47 365.514 139.88C371.103 149.014 368.229 160.949 359.095 166.538C349.961 172.127 338.026 169.253 332.437 160.119L266.283 200.597L250.092 174.136L316.246 133.658Z" fill="#C5DEF8"/>
<path d="M342.265 28.0049C340.951 23.8469 320.441 14.3239 301.065 20.4489C290.732 23.7149 285.003 34.7389 288.269 45.0719C291.535 55.4049 302.559 61.1339 312.892 57.8679C332.268 51.7429 343.579 32.1619 342.265 28.0049V28.0049Z" fill="#A3EA6E"/>
<path d="M312.892 57.8671C323.379 54.5521 331.497 47.2971 336.536 40.6781C327.403 36.3951 316.887 34.1641 305.223 34.1641C300.935 34.1641 296.504 34.4701 292.056 35.0741C291.685 35.1241 291.308 35.1501 290.935 35.1501C289.882 35.1501 288.866 34.9441 287.92 34.5721C287.108 37.9301 287.151 41.5381 288.268 45.0721C291.534 55.4041 302.559 61.1331 312.892 57.8671V57.8671Z" fill="#85D249"/>
<path d="M349.025 85.49L334.706 73.668L280.821 51.348L226.936 29.028L208.451 27.262C233.008 37.434 230.626 74.401 229.234 85.777C227.842 97.153 211.017 125.793 204.796 140.813C201.144 149.63 198.774 168.131 197.44 181.908C204.506 187.384 212.406 192.025 221.064 195.611C229.722 199.197 238.589 201.502 247.458 202.626C256.257 191.94 267.663 177.183 271.315 168.366C277.536 153.346 285.891 121.197 292.951 112.169C300.012 103.142 324.467 75.318 349.025 85.49V85.49Z" fill="#FFF9C2"/>
<path d="M247.458 202.628C207.384 165.643 248.509 118.645 251.459 96.293C254.409 73.942 258.499 52.921 276.995 60.583L280.82 51.348L226.935 29.028L208.45 27.262C233.007 37.434 230.625 74.401 229.233 85.777C227.841 97.153 211.016 125.793 204.795 140.813C201.143 149.63 198.773 168.131 197.439 181.908C204.505 187.384 212.405 192.025 221.063 195.611C229.721 199.197 238.589 201.503 247.458 202.628Z" fill="#FFF688"/>
<path d="M281.125 0.458993C278.06 1.72899 276.604 5.24299 277.874 8.30799C282.346 19.105 281.266 31.405 274.981 41.257L272.65 44.911L291.149 52.574L292.2 48.433C295.974 33.567 294.842 17.88 288.973 3.70999C287.704 0.644993 284.19 -0.811007 281.125 0.458993V0.458993Z" fill="#C04A27"/>
<path d="M294.275 34.8091C293.536 34.8931 292.797 34.9731 292.056 35.0731C291.685 35.1231 291.308 35.1491 290.935 35.1491C288.346 35.1491 285.958 33.9631 284.384 31.8951C283.045 30.1361 281.669 28.4501 280.262 26.8311C279.573 31.8951 277.809 36.8241 274.981 41.2571L272.65 44.9111L291.149 52.5741L292.2 48.4331C293.34 43.9451 294.025 39.3821 294.275 34.8091Z" fill="#B2381B"/>
<path d="M272.448 40.98C261.697 26.855 239.869 6.93699 208.29 20.102C205.061 21.448 205.163 26.068 208.451 27.263C217.201 30.444 229.712 37.078 234.647 49.912C235.827 52.981 238.89 54.899 242.175 54.741C249.628 54.383 263.072 54.817 276.995 60.584C290.919 66.351 300.731 75.55 305.748 81.074C307.959 83.508 311.481 84.318 314.485 82.982C327.05 77.397 340.588 81.553 349.023 85.49C352.193 86.97 355.532 83.776 354.201 80.54C341.18 48.902 311.661 47.551 294.072 49.937C285.768 51.064 277.524 47.649 272.448 40.98V40.98Z" fill="#FF4155"/>
<path d="M273.034 51.795C274.238 48.889 277.167 47.222 280.142 47.486C277.183 45.932 274.544 43.735 272.448 40.98C261.697 26.855 239.869 6.93699 208.29 20.102C205.061 21.448 205.163 26.068 208.451 27.263C217.201 30.444 229.712 37.078 234.647 49.912C235.827 52.981 238.89 54.899 242.175 54.741C249.251 54.401 261.727 54.778 274.887 59.753C272.693 57.822 271.854 54.645 273.034 51.795V51.795Z" fill="#E80054"/>
<path d="M68.94 139.884L140.592 110.205L152.464 138.866L80.812 168.545C84.91 178.438 80.212 189.78 70.319 193.878C60.426 197.976 49.084 193.278 44.986 183.385C42.559 177.525 43.218 171.157 46.215 166.087C40.511 164.621 35.542 160.585 33.114 154.724C29.016 144.831 33.714 133.489 43.607 129.391C53.5 125.293 64.842 129.991 68.94 139.884V139.884Z" fill="white"/>
<path d="M68.94 139.884C73.038 149.777 68.34 161.119 58.447 165.217C54.182 166.983 49.651 167.108 45.544 165.894C45.767 165.96 45.989 166.029 46.215 166.087C43.218 171.157 42.559 177.525 44.986 183.385C49.084 193.278 60.426 197.976 70.319 193.878C80.212 189.78 84.91 178.438 80.812 168.545L152.464 138.866L140.592 110.205L68.94 139.884Z" fill="#E1EAF9"/>
<path d="M163.278 67.7489C163.289 67.7439 163.3 67.7399 163.311 67.7349C165.066 67.0049 167.059 67.6049 168.084 69.2069C174.516 79.2629 187.415 83.5789 198.829 78.8509C203.02 77.1149 206.491 74.3749 209.079 71.0259C210.387 69.3329 212.797 69.0569 214.493 70.3619C220.472 74.9639 228.675 76.3339 236.146 73.2389C237.687 72.6009 239.115 71.8049 240.421 70.8789C242.259 69.5749 244.79 70.0949 245.964 72.0189C247.763 74.9659 249.362 78.0849 250.725 81.3759C265.043 115.941 248.883 155.327 214.41 169.865C197.556 176.973 179.47 176.755 163.672 170.673C155.378 167.48 146.219 167.17 137.804 170.03C128.642 173.144 118.28 172.862 108.73 168.35C90.841 159.899 82.146 138.907 88.82 120.282C92.373 110.365 99.473 102.851 108.123 98.5689C116.112 94.6139 122.412 87.9259 126.032 79.7799C128.439 74.3629 131.553 69.2569 135.311 64.6109C136.646 62.9609 139.107 62.7529 140.717 64.1349C146.753 69.3219 155.421 71.0029 163.278 67.7489V67.7489Z" fill="#D85E41"/>
<path d="M121.354 94.734C135.696 129.358 175.39 145.799 210.013 131.458C231.959 122.368 246.596 103.09 250.723 81.376C265.04 115.941 248.881 155.327 214.408 169.864C197.554 176.972 179.468 176.754 163.67 170.672C155.302 167.451 146.071 167.279 137.563 170.109C128.897 172.992 119.177 172.844 110.095 168.963C90.814 160.724 81.541 138.339 89.35 118.879C93.028 109.713 99.796 102.735 107.963 98.646C112.373 96.438 116.289 93.429 119.531 89.809C120.071 91.461 120.678 93.103 121.354 94.734V94.734Z" fill="#C04A27"/>
<path d="M50.571 278.503L43.333 188.795C42.667 180.538 35.433 174.384 27.175 175.05C18.918 175.716 12.764 182.95 13.43 191.208L20.668 280.916C21.334 289.173 28.568 295.327 36.826 294.661C45.083 293.994 51.237 286.76 50.571 278.503V278.503Z" fill="#6EAAD3"/>
<path d="M349.429 278.503L356.667 188.795C357.333 180.538 364.567 174.384 372.825 175.05C381.082 175.716 387.236 182.95 386.57 191.208L379.332 280.916C378.666 289.173 371.432 295.327 363.174 294.661C354.917 293.994 348.763 286.76 349.429 278.503V278.503Z" fill="#6EAAD3"/>
<path d="M30 170L53.346 465.838C94.884 494.922 145.444 512 200 512C254.556 512 305.116 494.922 346.654 465.838L370 170H30Z" fill="#C5DEF8"/>
<path d="M53.346 465.838C94.884 494.922 145.444 512 200 512C254.556 512 305.116 494.922 346.654 465.838C215.471 465.838 106.931 363.773 98.872 232.839L98.081 220H366.055L370 170H30L53.346 465.838Z" fill="#8EC2ED"/>
<path d="M385 190.287H15C6.716 190.287 0 183.571 0 175.287C0 167.003 6.716 160.287 15 160.287H385C393.284 160.287 400 167.003 400 175.287C400 183.571 393.284 190.287 385 190.287Z" fill="#E1EAF9"/>
<path d="M81.234 175.287C81.234 167.003 87.95 160.287 96.234 160.287H15C6.716 160.287 0 167.003 0 175.287C0 183.571 6.716 190.287 15 190.287H96.234C87.95 190.287 81.234 183.571 81.234 175.287Z" fill="#C5DEF8"/>
<path d="M161.025 407.196L215.865 352.356L193.929 330.42L139.089 385.26C131.517 377.688 119.241 377.688 111.669 385.26C104.097 392.832 104.097 405.108 111.669 412.68C116.154 417.165 122.29 418.993 128.121 418.164C127.293 423.995 129.12 430.131 133.605 434.616C141.177 442.188 153.453 442.188 161.025 434.616C168.597 427.044 168.597 414.768 161.025 407.196V407.196Z" fill="#6EAAD3"/>
<path d="M263.772 347.644C264.617 346.799 265.516 346.041 266.455 345.364C257.324 335.515 257.542 320.129 267.119 310.551C271.408 306.262 276.862 303.849 282.462 303.312C278.426 295.16 279.796 285.011 286.584 278.223C288.769 276.038 291.305 274.417 294.008 273.354C291.376 269.201 288.267 265.263 284.645 261.641C258.19 235.186 215.618 235.043 188.995 261.328C175.978 274.179 169.259 290.972 168.832 307.894C168.606 316.858 165.232 325.452 159.361 332.229C153.381 339.132 149.798 348.169 149.908 358.045C150.141 379.011 167.274 396.145 188.24 396.377C198.116 396.487 207.152 392.904 214.056 386.924C220.836 381.05 229.434 377.681 238.402 377.453C245.719 377.267 253.011 375.903 259.971 373.364C255.543 365.11 256.807 354.608 263.772 347.644V347.644Z" fill="#8EC2ED"/>
<path d="M222.797 376.049C196.297 349.549 196.297 306.585 222.797 280.085C239.594 263.288 263.005 257.143 284.646 261.639C258.191 235.184 215.62 235.041 188.996 261.326C175.979 274.177 169.26 290.97 168.833 307.892C168.607 316.856 165.233 325.449 159.362 332.227C153.382 339.13 149.799 348.167 149.909 358.043C150.142 379.009 167.275 396.143 188.242 396.375C198.118 396.485 207.154 392.902 214.058 386.922C217.785 383.693 222.064 381.226 226.649 379.617C225.33 378.487 224.045 377.298 222.797 376.049V376.049Z" fill="#6EAAD3"/>
<path d="M147.316 440.295C158.024 440.295 166.705 431.614 166.705 420.906C166.705 410.198 158.024 401.517 147.316 401.517C136.608 401.517 127.927 410.198 127.927 420.906C127.927 431.614 136.608 440.295 147.316 440.295Z" fill="#C5DEF8"/>
</svg>
