<svg width="400" height="512" viewBox="0 0 400 512" fill="none" xmlns="http://www.w3.org/2000/svg">
<path d="M106.03 214.91C108.58 209.92 115 208.46 115 201.135C115 191.99 105 191.99 105 182.85C105 173.705 115 173.705 115 164.56C115 155.42 105 155.42 105 146.275C105 137.135 115 137.135 115 127.995C115 118.85 105 118.85 105 109.71C105 100.565 115 100.565 115 91.425C115 82.28 105 82.28 105 73.14C105 63.995 115 63.995 115 54.855C115 47.53 108.585 46.07 106.03 41.085C105.395 39.845 105 38.39 105 36.57C105 27.425 115 27.425 115 18.285C115 10.405 107.565 9.315 105.52 3.31C104.965 1.685 106.175 0 107.89 0H285C290.525 0 295 4.475 295 10V214.91H106.03Z" fill="#E1EAF9"/>
<path d="M171.681 0H107.89C106.175 0 104.965 1.685 105.52 3.31C107.565 9.315 115 10.405 115 18.285C115 27.425 105 27.425 105 36.57C105 38.39 105.395 39.845 106.03 41.085C108.585 46.07 115 47.53 115 54.855C115 63.995 105 63.995 105 73.14C105 82.28 115 82.28 115 91.425C115 100.565 105 100.565 105 109.71C105 118.85 115 118.85 115 127.995C115 137.135 105 137.135 105 146.275C105 155.42 115 155.42 115 164.56C115 173.705 105 173.705 105 182.85C105 191.99 115 191.99 115 201.135C115 208.46 108.58 209.92 106.03 214.91H161.681V10C161.681 4.475 166.156 0 171.681 0V0Z" fill="#C5DEF8"/>
<path d="M40 210.419H199.112C204.635 210.419 209.112 205.942 209.112 200.419V104.325C209.112 98.802 204.635 94.325 199.112 94.325H40C34.477 94.325 30 98.802 30 104.325V200.419C30 205.942 34.477 210.419 40 210.419V210.419Z" fill="#D85E41"/>
<path d="M30 104.325V200.419C30 205.942 34.477 210.419 40 210.419H96.234V160.287L32.935 97.248C31.122 99.058 30 101.56 30 104.325V104.325Z" fill="#C04A27"/>
<path d="M209.112 104.325V200.419C209.112 205.942 204.635 210.419 199.112 210.419H142.878V160.287L206.177 97.248C207.99 99.058 209.112 101.56 209.112 104.325V104.325Z" fill="#C04A27"/>
<path d="M280.238 63.575C286.701 70.038 293.772 62.967 300.235 69.43C306.702 75.896 299.63 82.968 306.093 89.431C312.559 95.897 319.631 88.826 326.093 95.289C332.56 101.755 325.489 108.827 331.951 115.289C338.418 121.755 345.489 114.684 351.951 121.147C357.131 126.327 353.627 131.895 355.345 137.227C355.773 138.553 356.522 139.861 357.809 141.148C360.908 144.247 364.145 144.238 367.388 144.099C368.81 144.038 369.997 145.173 369.997 146.596V173.218C369.997 178.741 365.52 183.218 359.997 183.218H195C189.477 183.218 185 178.741 185 173.218V65.218C185 59.695 189.477 55.218 195 55.218H274.841C276.112 55.218 277.195 56.17 277.323 57.434C277.533 59.516 278.237 61.574 280.238 63.575V63.575Z" fill="#FFF442"/>
<path d="M230.447 173.219V65.219C230.447 59.696 234.924 55.219 240.447 55.219H195C189.477 55.219 185 59.696 185 65.219V173.219C185 178.742 189.477 183.219 195 183.219H240.447C234.924 183.219 230.447 178.742 230.447 173.219Z" fill="#FFE400"/>
<path d="M50.571 278.503L43.333 188.795C42.667 180.538 35.433 174.384 27.175 175.05C18.918 175.716 12.764 182.95 13.43 191.208L20.668 280.916C21.334 289.173 28.568 295.327 36.826 294.661C45.083 293.994 51.237 286.76 50.571 278.503V278.503Z" fill="#009ECE"/>
<path d="M349.429 278.503L356.667 188.795C357.333 180.538 364.567 174.384 372.825 175.05C381.082 175.716 387.236 182.95 386.57 191.208L379.332 280.916C378.666 289.173 371.432 295.327 363.174 294.661C354.917 293.994 348.763 286.76 349.429 278.503V278.503Z" fill="#009ECE"/>
<path d="M30 170L53.346 465.838C94.884 494.922 145.444 512 200 512C254.556 512 305.116 494.922 346.654 465.838L370 170H30Z" fill="#2EBCF6"/>
<path d="M53.346 465.838C94.884 494.922 145.444 512 200 512C254.556 512 305.116 494.922 346.654 465.838C215.471 465.838 106.931 363.773 98.872 232.839L98.081 220H366.055L370 170H30L53.346 465.838Z" fill="#00ADF4"/>
<path d="M385 190.287H15C6.716 190.287 0 183.571 0 175.287C0 167.003 6.716 160.287 15 160.287H385C393.284 160.287 400 167.003 400 175.287C400 183.571 393.284 190.287 385 190.287Z" fill="#8ADAF9"/>
<path d="M81.234 175.287C81.234 167.003 87.95 160.287 96.234 160.287H15C6.716 160.287 0 167.003 0 175.287C0 183.571 6.716 190.287 15 190.287H96.234C87.95 190.287 81.234 183.571 81.234 175.287Z" fill="#2EBCF6"/>
<path d="M270.313 436V259.851C270.313 257.549 267.888 255.971 265.835 257.011C265.823 257.017 265.81 257.024 265.798 257.03C260.813 259.585 259.353 266 252.028 266C242.888 266 242.888 256 233.743 256C224.603 256 224.603 266 215.458 266C206.318 266 206.318 256 197.173 256C188.033 256 188.033 266 178.888 266C169.748 266 169.748 256 160.608 256C151.463 256 151.463 266 142.323 266C135.037 266 133.556 259.653 128.63 257.072C126.541 255.978 124.033 257.499 124.033 259.857V436C124.033 441.523 128.51 446 134.033 446H260.313C265.836 446 270.313 441.523 270.313 436V436Z" fill="#009ECE"/>
<path d="M232.813 328.5H161.533C157.391 328.5 154.033 325.142 154.033 321C154.033 316.858 157.391 313.5 161.533 313.5H232.813C236.955 313.5 240.313 316.858 240.313 321C240.313 325.142 236.955 328.5 232.813 328.5Z" fill="#2EBCF6"/>
<path d="M232.813 358.5H161.533C157.391 358.5 154.033 355.142 154.033 351C154.033 346.858 157.391 343.5 161.533 343.5H232.813C236.955 343.5 240.313 346.858 240.313 351C240.313 355.142 236.955 358.5 232.813 358.5Z" fill="#2EBCF6"/>
<path d="M232.813 388.5H161.533C157.391 388.5 154.033 385.142 154.033 381C154.033 376.858 157.391 373.5 161.533 373.5H232.813C236.955 373.5 240.313 376.858 240.313 381C240.313 385.142 236.955 388.5 232.813 388.5Z" fill="#2EBCF6"/>
<path d="M222.5 145.287H332.5C336.642 145.287 340 141.929 340 137.787C340 133.645 336.642 130.287 332.5 130.287H222.5C218.358 130.287 215 133.645 215 137.787C215 141.929 218.358 145.287 222.5 145.287Z" fill="#FEBB00"/>
<path d="M154.112 37.074H264.112C268.254 37.074 271.612 33.716 271.612 29.574C271.612 25.432 268.254 22.074 264.112 22.074H154.112C149.97 22.074 146.612 25.432 146.612 29.574C146.612 33.716 149.97 37.074 154.112 37.074V37.074Z" fill="#8EC2ED"/>
<path d="M222.5 115.287H331.95C327.124 110.458 329.85 105.289 328.838 100.287H222.5C218.358 100.287 215 103.645 215 107.787C215 111.929 218.358 115.287 222.5 115.287Z" fill="#FEBB00"/>
<path d="M222.5 85.2871H266.563C270.705 85.2871 274.063 81.9291 274.063 77.7871C274.063 73.6451 270.705 70.2871 266.563 70.2871H222.5C218.358 70.2871 215 73.6451 215 77.7871C215 81.9291 218.358 85.2871 222.5 85.2871Z" fill="#FEBB00"/>
</svg>
