<svg width="400" height="512" viewBox="0 0 400 512" fill="none" xmlns="http://www.w3.org/2000/svg">
<path d="M329.312 54.6618L338.127 33.3798L307.606 20.7378L298.791 42.0198L295.401 42.0608C272.021 42.3458 251.061 56.5368 242.113 78.1388C238.622 86.5668 242.624 96.2298 251.052 99.7208L283.165 122.907L322.268 129.219C330.696 132.71 340.359 128.708 343.85 120.28C352.798 98.6778 348.011 73.8228 331.681 57.0888L329.312 54.6618Z" fill="#E1EAF9"/>
<path d="M272.634 90.7808C281.582 69.1788 302.542 54.9878 325.922 54.7028L329.312 54.6618L338.127 33.3798L307.606 20.7378L298.791 42.0198L295.401 42.0608C272.021 42.3458 251.061 56.5368 242.113 78.1388C238.622 86.5668 242.624 96.2298 251.052 99.7208L283.165 122.907L322.268 129.219L281.573 112.363C273.145 108.872 269.143 99.2098 272.634 90.7808V90.7808Z" fill="#C5DEF8"/>
<path d="M296.984 190.261L257.881 183.949L225.768 160.763C217.34 157.272 213.338 147.61 216.829 139.181C220.32 130.753 229.982 126.751 238.411 130.242L277.514 136.554L309.627 159.74C318.055 163.231 322.057 172.893 318.566 181.322C315.074 189.75 305.412 193.752 296.984 190.261Z" fill="#E1EAF9"/>
<path d="M268.931 142.884L271.927 135.652L238.411 130.242C229.983 126.751 220.321 130.753 216.829 139.181C213.338 147.609 217.34 157.271 225.768 160.763L253.293 180.637L256.289 173.405C247.861 169.914 243.859 160.252 247.35 151.823C250.841 143.395 260.503 139.393 268.931 142.884V142.884Z" fill="#C5DEF8"/>
<path d="M309.626 159.74L238.41 130.242C229.982 126.751 225.98 117.089 229.471 108.66C232.962 100.232 242.624 96.2299 251.053 99.7209L322.269 129.219C330.697 132.71 334.699 142.372 331.208 150.801C327.716 159.229 318.054 163.231 309.626 159.74Z" fill="#C5DEF8"/>
<path d="M335.725 40.5029L304.269 27.4739C301.718 26.4169 300.506 23.4919 301.563 20.9409L303.476 16.3219C304.533 13.7709 307.458 12.5589 310.009 13.6159L341.465 26.6449C344.016 27.7019 345.228 30.6269 344.171 33.1779L342.258 37.7969C341.201 40.3479 338.276 41.5599 335.725 40.5029Z" fill="#FFE400"/>
<path d="M320.041 28.5939L321.954 23.9749C323.011 21.4239 325.936 20.2119 328.487 21.2689L310.009 13.6149C307.458 12.5579 304.533 13.7699 303.476 16.3209L301.563 20.9399C300.506 23.4909 301.718 26.4159 304.269 27.4729L322.747 35.1269C320.195 34.0699 318.984 31.1459 320.041 28.5939Z" fill="#FEBB00"/>
<path d="M259.992 121.302C263.483 112.874 273.145 108.872 281.574 112.363L251.053 99.7209C242.625 96.2299 232.962 100.232 229.471 108.66C225.98 117.088 229.982 126.751 238.41 130.242L268.931 142.884C260.503 139.393 256.501 129.731 259.992 121.302V121.302Z" fill="#8EC2ED"/>
<path d="M204.186 169.704L189.077 206.18C182.528 221.991 189.731 240.488 205.589 246.921C210.178 248.783 214.959 249.451 219.585 249.069C226.903 248.465 234.167 251.474 238.915 257.076C241.916 260.617 245.768 263.525 250.33 265.453C266.093 272.117 284.265 264.131 290.814 248.32L305.923 211.844C309.415 203.415 305.412 193.751 296.982 190.26L225.77 160.763C217.341 157.272 207.677 161.275 204.186 169.704V169.704Z" fill="#8EC2ED"/>
<path d="M101.209 42.02L92.394 20.738L61.873 33.38L70.688 54.662L68.32 57.088C51.99 73.822 47.203 98.677 56.151 120.279C59.642 128.707 69.304 132.709 77.733 129.218L116.836 122.906L148.949 99.72C157.377 96.229 161.379 86.567 157.888 78.138C148.94 56.536 127.98 42.345 104.6 42.06L101.209 42.02Z" fill="#E1EAF9"/>
<path d="M86.671 107.638C77.723 86.036 82.51 61.181 98.84 44.447L101.208 42.021L92.393 20.739L61.873 33.38L70.688 54.662L68.32 57.088C51.99 73.822 47.203 98.677 56.151 120.279C59.642 128.707 69.304 132.709 77.733 129.218L116.836 122.906L148.949 99.72L108.254 116.576C99.825 120.068 90.162 116.066 86.671 107.638V107.638Z" fill="#C5DEF8"/>
<path d="M174.232 160.763L142.119 183.949L103.016 190.261C94.588 193.752 84.925 189.75 81.434 181.322C77.943 172.894 81.945 163.231 90.373 159.74L122.486 136.554L161.589 130.242C170.017 126.751 179.68 130.753 183.171 139.181C186.662 147.609 182.66 157.272 174.232 160.763Z" fill="#E1EAF9"/>
<path d="M120.895 147.098L117.899 139.866L90.374 159.74C81.946 163.231 77.944 172.893 81.435 181.322C84.926 189.75 94.588 193.752 103.017 190.261L136.533 184.851L133.537 177.619C125.109 181.11 115.446 177.108 111.955 168.68C108.465 160.252 112.467 150.589 120.895 147.098V147.098Z" fill="#C5DEF8"/>
<path d="M161.59 130.242L90.374 159.74C81.946 163.231 72.283 159.229 68.792 150.801C65.301 142.373 69.303 132.711 77.731 129.219L148.947 99.7212C157.375 96.2302 167.037 100.232 170.529 108.66C174.02 117.088 170.018 126.751 161.59 130.242Z" fill="#C5DEF8"/>
<path d="M95.731 27.4741L64.275 40.5031C61.724 41.5601 58.799 40.3481 57.742 37.7971L55.829 33.1781C54.772 30.6271 55.984 27.7021 58.535 26.6451L89.991 13.6161C92.542 12.5591 95.467 13.7711 96.524 16.3221L98.437 20.9411C99.494 23.4921 98.282 26.4171 95.731 27.4741V27.4741Z" fill="#FF4155"/>
<path d="M76.22 30.1432L74.307 25.5242C73.25 22.9732 74.462 20.0482 77.013 18.9912L58.535 26.6452C55.984 27.7022 54.772 30.6272 55.829 33.1782L57.742 37.7972C58.799 40.3482 61.724 41.5602 64.275 40.5032L82.753 32.8492C80.202 33.9062 77.277 32.6952 76.22 30.1432V30.1432Z" fill="#E80054"/>
<path d="M99.314 138.159C95.823 129.731 99.825 120.068 108.253 116.577L77.732 129.219C69.304 132.71 65.302 142.372 68.793 150.801C72.284 159.229 81.946 163.231 90.375 159.74L120.896 147.098C112.467 150.589 102.805 146.587 99.314 138.159V138.159Z" fill="#8EC2ED"/>
<path d="M94.078 211.845L109.187 248.321C115.736 264.132 133.909 272.118 149.671 265.454C154.233 263.525 158.086 260.617 161.086 257.076C165.834 251.474 173.098 248.465 180.416 249.069C185.042 249.451 189.822 248.783 194.411 246.921C210.269 240.487 217.472 221.99 210.923 206.179L195.814 169.703C192.322 161.274 182.659 157.271 174.23 160.762L103.018 190.259C94.589 193.752 90.586 203.416 94.078 211.845V211.845Z" fill="#8EC2ED"/>
<path d="M216.518 30.536V7.5H183.482V30.536L180.366 31.872C158.875 41.082 144.941 62.214 144.941 85.596C144.941 94.719 152.336 102.114 161.459 102.114L200 111.245L238.542 102.113C247.665 102.113 255.06 94.718 255.06 85.595C255.06 62.213 241.126 41.082 219.635 31.871L216.518 30.536Z" fill="#E1EAF9"/>
<path d="M177.976 85.595C177.976 62.213 191.91 41.082 213.401 31.871L216.517 30.535V7.5H183.481V30.536L180.365 31.872C158.874 41.082 144.94 62.214 144.94 85.596C144.94 94.719 152.335 102.114 161.458 102.114L200 111.245L238.542 102.113H194.494C185.372 102.113 177.976 94.718 177.976 85.595V85.595Z" fill="#C5DEF8"/>
<path d="M238.542 168.184L200 177.316L161.458 168.184C152.335 168.184 144.94 160.789 144.94 151.666C144.94 142.543 152.335 135.148 161.458 135.148L200 126.016L238.542 135.148C247.665 135.148 255.06 142.543 255.06 151.666C255.059 160.789 247.664 168.184 238.542 168.184V168.184Z" fill="#E1EAF9"/>
<path d="M194.494 135.149V127.321L161.458 135.149C152.335 135.149 144.94 142.544 144.94 151.667C144.94 160.79 152.335 168.185 161.458 168.185L194.494 176.013V168.185C185.371 168.185 177.976 160.79 177.976 151.667C177.976 142.544 185.372 135.149 194.494 135.149Z" fill="#C5DEF8"/>
<path d="M238.542 135.149H161.459C152.336 135.149 144.941 127.754 144.941 118.631C144.941 109.508 152.336 102.113 161.459 102.113H238.542C247.665 102.113 255.06 109.508 255.06 118.631C255.059 127.753 247.664 135.149 238.542 135.149V135.149Z" fill="#C5DEF8"/>
<path d="M217.024 15H182.976C180.215 15 177.976 12.761 177.976 10V5C177.976 2.239 180.215 0 182.976 0H217.024C219.785 0 222.024 2.239 222.024 5V10C222.024 12.761 219.785 15 217.024 15Z" fill="#2A9DDD"/>
<path d="M197.976 10V5C197.976 2.239 200.215 0 202.976 0H182.976C180.215 0 177.976 2.239 177.976 5V10C177.976 12.761 180.215 15 182.976 15H202.976C200.215 15 197.976 12.761 197.976 10Z" fill="#167CC1"/>
<path d="M177.976 118.631C177.976 109.508 185.371 102.113 194.494 102.113H161.458C152.335 102.113 144.94 109.508 144.94 118.631C144.94 127.754 152.335 135.149 161.458 135.149H194.494C185.372 135.149 177.976 127.753 177.976 118.631Z" fill="#8EC2ED"/>
<path d="M144.941 184.704V224.186C144.941 241.299 158.674 255.632 175.787 255.508C180.74 255.472 185.412 254.26 189.539 252.137C196.069 248.778 203.931 248.778 210.462 252.137C214.589 254.26 219.262 255.472 224.214 255.508C241.327 255.633 255.06 241.3 255.06 224.186V184.704C255.06 175.58 247.664 168.184 238.54 168.184H161.461C152.337 168.184 144.941 175.58 144.941 184.704Z" fill="#8EC2ED"/>
<path d="M50.571 278.503L43.333 188.795C42.667 180.538 35.433 174.384 27.175 175.05C18.918 175.716 12.764 182.95 13.43 191.208L20.668 280.916C21.334 289.173 28.568 295.327 36.826 294.661C45.083 293.994 51.237 286.76 50.571 278.503V278.503Z" fill="#F99300"/>
<path d="M349.429 278.503L356.667 188.795C357.333 180.538 364.567 174.384 372.825 175.05C381.082 175.716 387.236 182.95 386.57 191.208L379.332 280.916C378.666 289.173 371.432 295.327 363.174 294.661C354.917 293.994 348.763 286.76 349.429 278.503V278.503Z" fill="#F99300"/>
<path d="M30 170L53.346 465.838C94.884 494.922 145.444 512 200 512C254.556 512 305.116 494.922 346.654 465.838L370 170H30Z" fill="#FFE400"/>
<path d="M53.346 465.838C94.884 494.922 145.444 512 200 512C254.556 512 305.116 494.922 346.654 465.838C215.471 465.838 106.931 363.773 98.872 232.839L98.081 220H366.055L370 170H30L53.346 465.838Z" fill="#FEBB00"/>
<path d="M385 190.287H15C6.716 190.287 0 183.571 0 175.287C0 167.003 6.716 160.287 15 160.287H385C393.284 160.287 400 167.003 400 175.287C400 183.571 393.284 190.287 385 190.287Z" fill="#FFF442"/>
<path d="M81.234 175.287C81.234 167.003 87.95 160.287 96.234 160.287H15C6.716 160.287 0 167.003 0 175.287C0 183.571 6.716 190.287 15 190.287H96.234C87.95 190.287 81.234 183.571 81.234 175.287Z" fill="#FFE400"/>
<path d="M216.518 263.782V240.746H183.482V263.782L180.366 265.118C158.875 274.328 144.941 295.46 144.941 318.842C144.941 327.965 152.336 335.36 161.459 335.36L200 344.491L238.542 335.359C247.665 335.359 255.06 327.964 255.06 318.841C255.06 295.459 241.126 274.328 219.635 265.117L216.518 263.782Z" fill="#FEBB00"/>
<path d="M194.494 335.359C185.371 335.359 177.976 327.964 177.976 318.841C177.976 295.459 191.91 274.328 213.401 265.117L216.517 263.781V240.745H183.481V263.781L180.365 265.117C158.874 274.327 144.94 295.459 144.94 318.841C144.94 327.963 152.335 335.359 161.458 335.359L200 344.491L216.518 340.577L194.494 335.359Z" fill="#F99300"/>
<path d="M238.542 401.43L200 410.562L161.458 401.43C152.335 401.43 144.94 394.035 144.94 384.912C144.94 375.789 152.335 368.394 161.458 368.394L200 359.262L238.542 368.394C247.665 368.394 255.06 375.789 255.06 384.912C255.059 394.035 247.664 401.43 238.542 401.43V401.43Z" fill="#FEBB00"/>
<path d="M194.494 401.43C185.372 401.43 177.976 394.035 177.976 384.912C177.976 375.79 185.371 368.394 194.494 368.394L216.518 363.176L200 359.262L161.458 368.394C152.336 368.394 144.94 375.789 144.94 384.912C144.94 394.034 152.335 401.43 161.458 401.43L200 410.562L216.518 406.648L194.494 401.43Z" fill="#F99300"/>
<path d="M238.542 368.394H161.459C152.336 368.394 144.941 360.999 144.941 351.876C144.941 342.753 152.336 335.358 161.459 335.358H238.542C247.665 335.358 255.06 342.753 255.06 351.876C255.059 360.999 247.664 368.394 238.542 368.394V368.394Z" fill="#F99300"/>
<path d="M217.024 248.246H182.976C180.215 248.246 177.976 246.007 177.976 243.246V238.246C177.976 235.485 180.215 233.246 182.976 233.246H217.024C219.785 233.246 222.024 235.485 222.024 238.246V243.246C222.024 246.007 219.785 248.246 217.024 248.246Z" fill="#E07F00"/>
<path d="M144.941 417.95V437.432C144.941 454.545 158.674 468.878 175.787 468.754C180.74 468.718 185.412 467.506 189.539 465.383C196.069 462.024 203.931 462.024 210.462 465.383C214.589 467.506 219.262 468.718 224.214 468.754C241.327 468.879 255.06 454.546 255.06 437.432V417.95C255.06 408.826 247.664 401.43 238.54 401.43H161.461C152.337 401.43 144.941 408.826 144.941 417.95V417.95Z" fill="#F99300"/>
<path d="M177.976 351.877C177.976 342.754 185.371 335.359 194.494 335.359H161.458C152.336 335.359 144.94 342.754 144.94 351.877C144.94 360.999 152.335 368.395 161.458 368.395H194.494C185.372 368.394 177.976 360.999 177.976 351.877V351.877Z" fill="#E07F00"/>
<path d="M177.976 437.432V417.95C177.976 408.826 185.372 401.43 194.496 401.43H161.46C152.336 401.43 144.94 408.826 144.94 417.95V437.432C144.94 454.545 158.673 468.878 175.786 468.754C180.739 468.718 185.411 467.506 189.538 465.383C190.526 464.875 191.548 464.453 192.588 464.098C183.802 458.535 177.976 448.575 177.976 437.432V437.432Z" fill="#E07F00"/>
</svg>
