<svg width="50" height="50" viewBox="0 0 50 50" fill="none" xmlns="http://www.w3.org/2000/svg">
<path d="M21.8805 50V47.0658C29.1611 47.0658 35.0844 41.1426 35.0844 33.8619C35.0844 26.5812 29.1611 20.658 21.8805 20.658H17.4792V24.6889L5.13477 12.3444L17.4792 0V4.03086H21.8805C28.0199 4.03086 33.7917 6.42168 38.133 10.7629C42.4743 15.1041 44.865 20.876 44.865 27.0154C44.865 33.1549 42.4742 38.9267 38.133 43.268C33.7918 47.6093 28.0199 50 21.8805 50Z" fill="#66E26F"/>
<path d="M38.133 10.7629C33.7918 6.42178 28.0199 4.03086 21.8805 4.03086H17.4792V0L5.13477 12.3444H21.8806C31.8737 12.3444 39.9748 20.4455 39.9748 30.4387C39.9748 40.4318 31.8737 48.5329 21.8806 48.5329V50C28.02 50 33.7918 47.6092 38.1331 43.268C42.4744 38.9268 44.8651 33.1549 44.8651 27.0154C44.8651 20.876 42.4743 15.1042 38.133 10.7629Z" fill="#48CC4E"/>
</svg>
